<svg xmlns="http://www.w3.org/2000/svg" width="510" height="291" viewBox="0 0 510 291"><defs><style>.a,.b{fill:none;}.a{stroke:#1c9ad6;stroke-width:2.236px;}.b{stroke:#c1c5c9;stroke-width:1.113px;}</style></defs><path class="a" d="M380.7551,257.576,28.2231,233.315l-.077-65.489m449.257,78.08,16.5309,2.764,3.306,2.38v10.057L382.5231,278.305,19.6121,247.518v-7.37l2.768-2.534,12.148-4.069"/><path class="b" d="M405.8215,171.7607c6.67,0,12.077,7.959,12.077,17.777s-5.407,17.777-12.077,17.777-12.078-7.959-12.078-17.777S399.1515,171.7607,405.8215,171.7607Zm-7.0011,3.448s-4.1539-.077-6.4609-.077c-5.4621,0-9.847,6.13-9.847,13.716s4.3849,13.716,9.847,13.716h5.154m3.846-29.347a9.8105,9.8105,0,0,1-.846-.996,14.0478,14.0478,0,0,0-11.001-4.981c-9.385,0-17.077,9.501-17.077,21.149s7.615,21.148,17.077,21.148a14.8328,14.8328,0,0,0,9.3079-3.448c1.3851-1.073,1-.843,1-.843M86.73,201.8747l-11.846-.537.384-38.466h11.847Zm82.927,3.908-22.462-.92-.154-41.225,22.693.46Zm58.849,2.605.231-43.447-50.003-.536-.153,41.837Zm85.312,3.218v-46.205l-74.696-.307-.308,43.524Zm51.079,10.115-.1541-62.757m47.1561,15.249-.077-15.479-46.925.154-4.923.996-.308,60.841,5.539,1.609,46.7709-4.215-.0769-13.179m-52.387,8.046-34.002-1.073.308-46.282,34.156.23m-221.472,38.542-44.156-2.298.077-38.62,44.156.613Zm220.856,16.015-292.321-14.099-.154-47.814,292.937,1.302m-292.937,46.359-2.308-.307-.154-47.125,2.308-.229m345.2469,46.358v9.962l3.3851,2.911,41.771-4.444v-12.796m-.077-27.509v-14.099l-41.925-.613-3.1541,1.685v14.176m3,3.908v-19.769m36.694,12.72c-5.9229,0-10.77,7.049-10.77,15.861s4.77,15.785,10.77,15.785,10.77-7.05,10.77-15.785S457.5925,170.9947,451.6694,170.9947Zm-6.2309,3.065h-5.7691c-4.8469,0-8.77,5.44-8.77,12.183s3.923,12.184,8.77,12.184h4.6151m3.3849-26.13s0-.153-.7689-.919c-2.77-2.682-6.078-4.445-9.77-4.445-8.3849,0-15.2319,8.429-15.2319,18.85s6.77,18.85,15.2319,18.85a12.7879,12.7879,0,0,0,8.3081-3.065c1.077-.919,1.154-.996,1.154-.996m-31.54,16.628v-16.398"/><path class="a" d="M380.976,257.484V19.222M489.3879,244.507,380.976,257.484V15.997L486.8509,27.821l2.6911.308ZM112.561,35.423l-.231,132.3-20.606,1.228L12.76,167.415V42.257l2.768-4.3L85.65,32.659l26.372,2.534L234.12,25.595l1.4611-5.606,101.876-7.294,23.298,4.684,19.452-1.459M89.956,32.889a20.8,20.8,0,0,0,1.537,4.07V168.644M339.226,12.695a30.135,30.135,0,0,0,1.999,4.223l.308,157.408M360.447,16.918V172.867l-18.684,2.15-108.796-3.762,1.076-145.66"/></svg>